<?xml version="1.0" standalone="no"?>
<!DOCTYPE svg PUBLIC "-//W3C//DTD SVG 20010904//EN"
 "http://www.w3.org/TR/2001/REC-SVG-20010904/DTD/svg10.dtd">
<svg version="1.0" xmlns="http://www.w3.org/2000/svg"
 width="362.000000pt" height="104.000000pt" viewBox="0 0 362.000000 104.000000"
 preserveAspectRatio="xMidYMid meet">
<metadata>
Created by potrace 1.16, written by Peter Selinger 2001-2019
</metadata>
<g transform="translate(0.000000,104.000000) scale(0.100000,-0.100000)"
fill="#000000" stroke="none">
<path d="M2396 794 c-19 -19 -19 -23 -1 -99 20 -80 19 -85 -10 -85 -39 0 -92
-26 -100 -48 -6 -20 -6 -20 -41 3 -19 13 -48 26 -63 30 l-29 6 26 78 c14 43
23 85 19 94 -8 22 -75 34 -92 16 -8 -8 -25 -48 -37 -89 l-24 -75 -50 -6 c-73
-9 -90 -16 -121 -52 -32 -37 -55 -37 -71 -2 -16 34 -67 58 -110 51 -41 -6 -68
-28 -93 -77 l-18 -37 -43 22 c-24 11 -57 35 -74 53 -52 53 -112 56 -161 7 -23
-23 -27 -24 -35 -10 -11 20 -61 46 -88 46 -35 0 -77 -27 -90 -60 -8 -20 -18
-29 -27 -26 -8 4 -18 6 -23 6 -5 0 -12 9 -15 21 -8 25 -61 59 -92 59 -36 0
-74 -22 -90 -53 l-15 -29 -21 20 c-48 43 -89 57 -172 57 -87 0 -138 -19 -184
-68 l-23 -26 -33 33 c-68 68 -207 84 -298 34 -73 -40 -107 -141 -73 -221 12
-30 11 -35 -5 -56 -43 -52 -15 -131 59 -171 21 -11 50 -33 66 -49 37 -39 104
-61 185 -61 78 0 135 23 173 68 l26 31 23 -25 c12 -13 47 -36 76 -50 46 -23
63 -26 131 -23 67 3 86 9 128 35 l49 30 31 -33 c25 -26 39 -33 70 -33 45 0 81
21 94 56 12 31 56 33 65 4 19 -61 116 -81 164 -32 l28 27 25 -27 c38 -41 98
-39 141 3 25 26 34 29 49 20 25 -16 80 -14 106 5 13 9 22 11 22 4 0 -6 11 -22
25 -35 36 -37 97 -35 137 5 16 17 33 30 37 30 4 0 18 -12 32 -26 42 -45 91
-64 166 -64 83 0 135 22 193 80 48 48 62 47 125 -11 56 -52 101 -69 180 -69
73 0 112 15 161 62 26 25 32 27 38 13 12 -33 69 -45 214 -45 114 0 144 3 174
19 34 17 38 17 53 2 12 -12 41 -17 126 -19 134 -5 174 2 205 33 28 28 33 98 9
132 -12 17 -12 27 -3 53 8 25 8 41 -1 66 -10 28 -10 38 3 56 39 55 6 142 -59
154 -21 4 -37 13 -40 25 -4 10 -18 28 -32 39 -23 18 -40 20 -155 20 -96 0
-137 -4 -158 -15 -27 -14 -33 -14 -60 0 -22 11 -64 15 -179 15 -160 0 -190 -7
-212 -46 l-13 -24 -31 30 c-21 20 -47 33 -84 40 -30 5 -55 10 -56 10 -1 0 -8
35 -15 77 -8 46 -21 84 -32 95 -22 22 -61 23 -82 2z m-2089 -239 c52 -22 73
-44 73 -75 0 -53 -43 -64 -110 -30 -44 22 -85 26 -96 8 -11 -17 20 -34 87 -47
77 -16 118 -50 125 -106 7 -53 -21 -103 -72 -129 -107 -56 -296 9 -269 93 10
32 50 37 104 12 53 -25 116 -26 116 -1 0 10 -23 21 -75 33 -101 25 -130 52
-130 123 0 59 24 98 74 120 42 18 129 17 173 -1z m429 -4 c23 -10 49 -29 58
-42 22 -32 21 -76 -3 -89 -30 -15 -49 -12 -89 15 -65 44 -130 27 -152 -40 -33
-99 72 -165 160 -100 39 29 62 31 84 9 46 -45 -9 -121 -103 -144 -58 -14 -107
-7 -162 21 -138 70 -128 311 16 375 44 20 142 17 191 -5z m241 -11 c7 -14 13
-46 13 -72 l0 -48 70 0 70 0 0 63 c0 70 10 87 51 87 51 0 59 -27 59 -200 0
-85 -3 -165 -6 -176 -9 -33 -51 -48 -80 -29 -21 14 -24 23 -24 80 l0 65 -70 0
-70 0 0 -53 c0 -69 -20 -99 -63 -95 -51 5 -58 30 -55 214 3 180 9 197 62 192
21 -2 35 -11 43 -28z m450 8 c11 -13 42 -63 68 -111 54 -100 44 -103 114 25
51 94 64 108 101 108 53 0 60 -25 60 -210 0 -183 -5 -203 -55 -203 -42 1 -55
26 -55 112 l-1 76 -32 -56 c-45 -78 -55 -89 -88 -89 -25 0 -33 9 -69 73 l-40
72 0 -76 c0 -86 -13 -112 -55 -112 -50 1 -55 20 -55 207 0 144 3 172 17 188
22 25 65 23 90 -4z m1643 9 c51 -25 40 -56 -64 -176 -53 -60 -96 -112 -96
-115 0 -4 38 -6 84 -6 76 0 86 -2 100 -22 20 -29 20 -34 -4 -58 -18 -18 -33
-20 -165 -20 -133 0 -147 2 -166 21 -14 14 -18 27 -13 42 7 25 10 28 118 150
l78 87 -80 0 c-96 0 -130 18 -118 64 4 15 17 31 29 36 35 14 268 12 297 -3z
m386 -11 c18 -26 18 -51 -2 -70 -12 -12 -36 -16 -100 -16 -77 0 -84 -2 -84
-20 0 -18 7 -20 68 -20 77 0 112 -17 112 -55 0 -38 -35 -55 -112 -55 -61 0
-68 -2 -68 -20 0 -18 7 -20 82 -20 62 0 86 -4 100 -17 24 -21 23 -48 -2 -73
-18 -18 -33 -20 -138 -20 -161 0 -153 -11 -150 211 l3 173 25 14 c17 9 60 12
138 10 99 -3 115 -5 128 -22z m-1495 -172 c47 -39 75 -42 170 -14 38 11 52 11
77 1 17 -7 33 -19 36 -26 20 -53 -84 -181 -166 -204 -131 -37 -247 54 -248
192 0 43 3 49 33 67 43 27 48 26 98 -16z m737 -16 c29 -25 -8 -137 -65 -190
-58 -55 -130 -62 -211 -22 -55 27 -92 67 -116 126 -15 34 -14 36 12 61 39 37
71 41 149 21 67 -17 69 -17 113 4 47 22 91 22 118 0z"/>
</g>
</svg>
